<svg width="222" height="88" viewBox="0 0 222 88" fill="none" xmlns="http://www.w3.org/2000/svg">
<path d="M3.15 67C2.91667 67 2.8 66.8833 2.8 66.65L2.94 18.56C2.94 18.3733 3.03333 18.28 3.22 18.28L16.31 18.21C18.8767 18.1633 21.21 18.77 23.31 20.03C25.4567 21.29 27.16 22.9933 28.42 25.14C29.68 27.24 30.31 29.5733 30.31 32.14V52.23C30.31 54.9367 29.6567 57.41 28.35 59.65C27.0433 61.8433 25.2933 63.5933 23.1 64.9C20.9067 66.2067 18.4333 66.8833 15.68 66.93L3.15 67ZM11.34 58.39H15.68C17.4067 58.39 18.8533 57.7833 20.02 56.57C21.2333 55.3567 21.84 53.91 21.84 52.23V32.07C21.84 30.5767 21.28 29.2933 20.16 28.22C19.0867 27.1 17.8033 26.5633 16.31 26.61L11.41 26.68L11.34 58.39ZM36.0976 67C35.9109 67 35.8176 66.8833 35.8176 66.65L35.9576 18.56C35.9576 18.3733 36.0509 18.28 36.2376 18.28H50.3776C52.8976 18.28 55.2076 18.91 57.3076 20.17C59.4542 21.3833 61.1576 23.04 62.4176 25.14C63.6776 27.1933 64.3076 29.5267 64.3076 32.14C64.3076 33.8667 64.0509 35.43 63.5376 36.83C63.0242 38.1833 62.4176 39.35 61.7176 40.33C61.0176 41.2633 60.3876 41.9633 59.8276 42.43C62.3476 45.23 63.6076 48.52 63.6076 52.3L63.6776 66.65C63.6776 66.8833 63.5609 67 63.3276 67H55.4176C55.2309 67 55.1376 66.93 55.1376 66.79V52.3C55.1376 50.62 54.5309 49.1733 53.3176 47.96C52.1509 46.7 50.7042 46.07 48.9776 46.07H44.3576L44.2876 66.65C44.2876 66.8833 44.1942 67 44.0076 67H36.0976ZM44.3576 37.67H50.3776C51.8242 37.67 53.1076 37.1333 54.2276 36.06C55.3476 34.9867 55.9076 33.68 55.9076 32.14C55.9076 30.6467 55.3476 29.3633 54.2276 28.29C53.1542 27.2167 51.8709 26.68 50.3776 26.68H44.3576V37.67ZM67.2071 66.65L75.8871 18.56C75.9338 18.3733 76.0504 18.28 76.2371 18.28H86.3871C86.5738 18.28 86.6904 18.3733 86.7371 18.56L95.0671 66.65C95.1138 66.8833 95.0204 67 94.7871 67H87.0171C86.8304 67 86.7138 66.8833 86.6671 66.65L85.8971 61.54H76.3771L75.6071 66.65C75.5604 66.8833 75.4438 67 75.2571 67H67.4871C67.3004 67 67.2071 66.8833 67.2071 66.65ZM77.7771 54.05H84.4971L81.6271 34.38L81.2071 31.79L80.9271 34.38L77.7771 54.05ZM110.766 67.7C108.246 67.7 105.96 67.07 103.906 65.81C101.853 64.55 100.196 62.87 98.9363 60.77C97.7229 58.6233 97.1163 56.2433 97.1163 53.63V31.44C97.1163 28.92 97.7229 26.61 98.9363 24.51C100.196 22.3633 101.853 20.66 103.906 19.4C106.006 18.14 108.293 17.51 110.766 17.51C113.333 17.51 115.643 18.14 117.696 19.4C119.796 20.6133 121.453 22.27 122.666 24.37C123.88 26.47 124.486 28.8267 124.486 31.44V34.66C124.486 34.8467 124.37 34.94 124.136 34.94H116.296C116.11 34.94 116.016 34.8467 116.016 34.66V32C116.016 30.2267 115.503 28.7567 114.476 27.59C113.496 26.4233 112.26 25.84 110.766 25.84C109.413 25.84 108.2 26.4 107.126 27.52C106.1 28.64 105.586 29.9467 105.586 31.44V53.63C105.586 55.17 106.1 56.5 107.126 57.62C108.153 58.6933 109.366 59.23 110.766 59.23C112.26 59.23 113.496 58.6933 114.476 57.62C115.503 56.5467 116.016 55.2167 116.016 53.63V50.2H111.116C110.883 50.2 110.766 50.0833 110.766 49.85V42.01C110.766 41.7767 110.883 41.66 111.116 41.66H124.206C124.393 41.66 124.486 41.7767 124.486 42.01V53.63C124.486 56.2433 123.856 58.6233 122.596 60.77C121.383 62.87 119.75 64.55 117.696 65.81C115.643 67.07 113.333 67.7 110.766 67.7ZM142.42 67.7C139.9 67.7 137.59 67.07 135.49 65.81C133.437 64.5033 131.78 62.8 130.52 60.7C129.26 58.5533 128.63 56.1967 128.63 53.63L128.7 31.44C128.7 28.8733 129.307 26.54 130.52 24.44C131.78 22.34 133.46 20.66 135.56 19.4C137.66 18.14 139.947 17.51 142.42 17.51C144.94 17.51 147.227 18.14 149.28 19.4C151.333 20.66 152.967 22.34 154.18 24.44C155.44 26.54 156.07 28.8733 156.07 31.44L156.14 53.63C156.14 56.1967 155.51 58.5533 154.25 60.7C153.037 62.8 151.38 64.5033 149.28 65.81C147.227 67.07 144.94 67.7 142.42 67.7ZM142.42 59.23C143.82 59.23 145.033 58.67 146.06 57.55C147.133 56.3833 147.67 55.0767 147.67 53.63L147.6 31.44C147.6 29.9 147.11 28.5933 146.13 27.52C145.15 26.4467 143.913 25.91 142.42 25.91C140.973 25.91 139.737 26.4467 138.71 27.52C137.683 28.5467 137.17 29.8533 137.17 31.44V53.63C137.17 55.17 137.683 56.5 138.71 57.62C139.737 58.6933 140.973 59.23 142.42 59.23ZM162.092 67C161.719 67 161.532 66.8367 161.532 66.51L161.462 18.84C161.462 18.4667 161.649 18.28 162.022 18.28H168.322L180.152 45.86L179.802 18.84C179.802 18.4667 180.012 18.28 180.432 18.28H187.362C187.642 18.28 187.782 18.4667 187.782 18.84L187.852 66.58C187.852 66.86 187.735 67 187.502 67H181.342L169.232 41.24L169.722 66.44C169.722 66.8133 169.512 67 169.092 67H162.092ZM205.833 67.7C203.313 67.7 201.003 67.07 198.903 65.81C196.849 64.5033 195.193 62.8 193.933 60.7C192.719 58.5533 192.113 56.1967 192.113 53.63V50.41C192.113 50.1767 192.229 50.06 192.463 50.06H200.303C200.489 50.06 200.583 50.1767 200.583 50.41V53.63C200.583 55.17 201.096 56.5 202.123 57.62C203.149 58.6933 204.386 59.23 205.833 59.23C207.279 59.23 208.516 58.67 209.543 57.55C210.569 56.43 211.083 55.1233 211.083 53.63C211.083 51.9033 209.963 50.41 207.723 49.15C206.976 48.73 205.809 48.0767 204.223 47.19C202.636 46.3033 201.143 45.4633 199.743 44.67C197.176 43.1767 195.263 41.31 194.003 39.07C192.789 36.7833 192.183 34.2167 192.183 31.37C192.183 28.7567 192.813 26.4233 194.073 24.37C195.333 22.27 196.989 20.6133 199.043 19.4C201.143 18.1867 203.406 17.58 205.833 17.58C208.306 17.58 210.569 18.21 212.623 19.47C214.723 20.6833 216.379 22.34 217.593 24.44C218.853 26.4933 219.483 28.8033 219.483 31.37V37.11C219.483 37.2967 219.389 37.39 219.203 37.39H211.363C211.176 37.39 211.083 37.2967 211.083 37.11L211.013 31.37C211.013 29.7367 210.499 28.4067 209.473 27.38C208.446 26.3533 207.233 25.84 205.833 25.84C204.386 25.84 203.149 26.4 202.123 27.52C201.096 28.5933 200.583 29.8767 200.583 31.37C200.583 32.91 200.909 34.1933 201.563 35.22C202.216 36.2467 203.406 37.2267 205.133 38.16C205.366 38.3 205.809 38.5567 206.463 38.93C207.163 39.2567 207.909 39.6533 208.703 40.12C209.496 40.54 210.196 40.9133 210.803 41.24C211.456 41.5667 211.853 41.7767 211.993 41.87C214.326 43.1767 216.169 44.7867 217.523 46.7C218.876 48.5667 219.553 50.8767 219.553 53.63C219.553 56.29 218.923 58.6933 217.663 60.84C216.449 62.94 214.793 64.62 212.693 65.88C210.639 67.0933 208.353 67.7 205.833 67.7Z" fill="#303030"/>
<path d="M142.5 28L146.204 39.4012H158.192L148.494 46.4476L152.198 57.8488L142.5 50.8024L132.802 57.8488L136.506 46.4476L126.808 39.4012H138.796L142.5 28Z" fill="#CCC755"/>
</svg>
